<svg id="Group_96" data-name="Group 96" xmlns="http://www.w3.org/2000/svg" xmlns:xlink="http://www.w3.org/1999/xlink" width="33.092" height="40.046" viewBox="0 0 33.092 40.046">
  <defs>
    <clipPath id="clip-path">
      <rect id="Rectangle_95" data-name="Rectangle 95" width="33.092" height="40.046" fill="#17168c"/>
    </clipPath>
  </defs>
  <g id="Group_92" data-name="Group 92" transform="translate(0)" clip-path="url(#clip-path)">
    <path id="Path_63" data-name="Path 63" d="M30.617,7.675,28.7,2.512S27.424-.427,24.872.053c0,0-1.276.659-.358,2.459a5.944,5.944,0,0,0,1.634,1.017l1.447,3.778h-.374a2.239,2.239,0,0,0-1.378,2.16v5.516s.254,2.037,1.631,2.037h1.631V33.9c-.473.862-.937,0-.937,0V26.294a4.371,4.371,0,0,0-2.117-4.023H24.233V8.674a4.592,4.592,0,0,0-4.912-4.843H6.474A4.593,4.593,0,0,0,1.559,8.674V35.967H.491A.541.541,0,0,0,0,36.543V39.47a.541.541,0,0,0,.491.577H25.56a.541.541,0,0,0,.491-.577V36.543a.541.541,0,0,0-.491-.577H24.233V25.355H25.48l.107,9.112a3.081,3.081,0,0,0,2.961,2.939,3.18,3.18,0,0,0,3.142-2.64V17.02a2.7,2.7,0,0,0,1.4-1.917V11.143a7.761,7.761,0,0,0-2.475-3.468m-3.676,5H26.93v0h.011Zm1.145-7.438h-.011v0h.011ZM2.531,38.415H2.52v0h.011Zm4-20.979H6.525v0h.011Zm4.571,14.115H11.1v0h.008Zm.005-7.435H11.1v0h.008ZM20.09,35.174h-.008v0h.008Zm-.013-17.738h.008v0h-.008Zm2.48-5.732A2.7,2.7,0,0,1,20.1,14.587H6.031A2.7,2.7,0,0,1,3.575,11.7V8.749A2.7,2.7,0,0,1,6.031,5.863H20.1a2.7,2.7,0,0,1,2.459,2.886Zm1.332,26.711h-.011v0h.011Zm6.674-11.632h-.011v0h.011Z" transform="translate(0 0)" fill="#17168c"/>
  </g>
</svg>
