<svg xmlns="http://www.w3.org/2000/svg" width="39.066" height="33.486" viewBox="0 0 39.066 33.486">
  <path id="Icon_ionic-ios-speedometer" data-name="Icon ionic-ios-speedometer" d="M21.783,4.5A19.527,19.527,0,0,0,7.159,36.974c.1.1.183.209.279.305a2.2,2.2,0,0,0,3.235-.009,15.1,15.1,0,0,1,22.219,0,2.2,2.2,0,0,0,3.235.009l.279-.305A19.527,19.527,0,0,0,21.783,4.5Zm-1.221,4A1.221,1.221,0,0,1,23,8.5v3.139a1.221,1.221,0,0,1-2.442,0ZM9.4,25.245H6.261a1.221,1.221,0,1,1,0-2.442H9.4a1.221,1.221,0,1,1,0,2.442Zm4.491-9.113h0a1.232,1.232,0,0,1-1.727,0L9.941,13.918a1.232,1.232,0,0,1,0-1.727h0a1.232,1.232,0,0,1,1.727,0l2.224,2.224A1.221,1.221,0,0,1,13.891,16.133Zm14,3.008-4.142,6.584a2.7,2.7,0,0,1-.61.61,2.625,2.625,0,1,1-3.052-4.273l6.584-4.142a.892.892,0,0,1,1.02,0A.877.877,0,0,1,27.9,19.141ZM31.4,16.133a1.232,1.232,0,0,1-1.727,0h0a1.232,1.232,0,0,1,0-1.727L31.9,12.182a1.232,1.232,0,0,1,1.727,0h0a1.232,1.232,0,0,1,0,1.727Zm5.9,9.113H34.166a1.221,1.221,0,1,1,0-2.442h3.139a1.221,1.221,0,0,1,0,2.442Z" transform="translate(-2.25 -4.5)" fill="#17168c"/>
</svg>
